<?xml version="1.0" encoding="UTF-8" standalone="no"?>
<svg
   xmlns:dc="http://purl.org/dc/elements/1.1/"
   xmlns:cc="http://creativecommons.org/ns#"
   xmlns:rdf="http://www.w3.org/1999/02/22-rdf-syntax-ns#"
   xmlns:svg="http://www.w3.org/2000/svg"
   xmlns="http://www.w3.org/2000/svg"
   viewBox="0 0 495.38666 113.38667"
   height="113.38667"
   width="495.38666"
   xml:space="preserve"
   id="svg2"
   version="1.1"><metadata
     id="metadata8"><rdf:RDF><cc:Work
         rdf:about=""><dc:format>image/svg+xml</dc:format><dc:type
           rdf:resource="http://purl.org/dc/dcmitype/StillImage" /></cc:Work></rdf:RDF></metadata><defs
     id="defs6" /><g
     transform="matrix(1.3333333,0,0,-1.3333333,0,113.38667)"
     id="g10"><g
       transform="scale(0.1)"
       id="g12"><path
         id="path14"
         style="fill:#5cc23d;fill-opacity:1;fill-rule:nonzero;stroke:none"
         d="m 423.32,695.566 c 3.711,-5.089 7.278,-10.281 10.516,-15.605 8.504,-13.961 15.316,-28.719 19.82,-43.039 1.856,-5.555 2.145,-11.524 0.844,-17.262 -1.316,-5.844 -4.277,-11.199 -8.555,-15.48 -3.066,-3.063 -6.621,-5.434 -10.574,-7.028 -3.824,-1.547 -7.879,-2.336 -12.043,-2.336 -4.16,-0.003 -8.219,0.789 -12.039,2.336 -9.496,3.856 -16.871,12.5 -19.133,22.5 -1.297,5.746 -1.004,11.715 0.981,17.657 4.433,14.105 11.054,28.461 19.687,42.652 3.289,5.398 6.832,10.57 10.496,15.605 z m 0.028,-540.738 c -3.707,5.086 -7.282,10.281 -10.516,15.606 -8.504,13.972 -15.312,28.718 -19.82,43.054 -1.856,5.547 -2.149,11.504 -0.852,17.246 1.32,5.84 4.278,11.204 8.563,15.481 3.058,3.066 6.621,5.43 10.57,7.031 3.824,1.543 7.871,2.344 12.043,2.332 4.156,0.012 8.219,-0.789 12.043,-2.332 9.488,-3.848 16.859,-12.473 19.129,-22.512 1.301,-5.742 1.004,-11.699 -0.981,-17.644 -4.437,-14.113 -11.058,-28.469 -19.687,-42.656 -3.289,-5.403 -6.832,-10.567 -10.492,-15.606 z m 244.933,641.699 c 61.375,-17.382 109.407,-68.062 125.375,-132.257 17.477,-70.247 -5.816,-144.809 -64.07,-206.934 -8.547,6.727 -17.512,13.019 -26.91,18.742 -17.426,10.606 -35.281,18.817 -52.664,24.277 -13.739,4.586 -28.481,5.317 -42.645,2.125 -14.574,-3.312 -27.875,-10.656 -38.469,-21.246 -7.55,-7.554 -13.406,-16.371 -17.406,-26.238 -3.851,-9.5 -5.797,-19.523 -5.804,-29.797 0.007,-10.285 1.953,-20.312 5.804,-29.797 9.571,-23.652 30.93,-41.855 55.875,-47.48 14.149,-3.203 28.891,-2.469 42.266,1.992 17.773,5.586 35.621,13.809 53.039,24.406 9.402,5.723 18.371,12.02 26.906,18.731 58.293,-62.199 81.563,-136.633 64.074,-206.926 C 777.684,121.926 729.648,71.2539 668.285,53.8711 c -68.793,-19.4922 -143.847,3.8867 -212.5,65.4569 6.606,8.438 12.793,17.277 18.434,26.535 10.609,17.461 18.824,35.313 24.265,52.657 4.59,13.738 5.325,28.484 2.125,42.644 -3.304,14.582 -10.648,27.883 -21.246,38.477 -7.547,7.55 -16.367,13.398 -26.23,17.402 -9.5,3.848 -19.528,5.801 -29.797,5.801 -10.285,0 -20.32,-1.953 -29.801,-5.801 -9.84,-3.984 -18.668,-9.844 -26.234,-17.41 -10.61,-10.606 -17.953,-23.906 -21.242,-38.469 -3.207,-14.148 -2.469,-28.894 1.992,-42.246 5.582,-17.773 13.793,-35.625 24.414,-53.066 5.609,-9.227 11.765,-18.036 18.406,-26.493 C 321.953,57.6602 247.047,34.4063 178.387,53.8711 117.016,71.2344 68.9727,121.918 53.0078,186.125 c -17.4765,70.246 5.8125,144.816 64.0702,206.934 8.547,-6.727 17.512,-13.028 26.914,-18.75 17.461,-10.606 35.313,-18.829 52.656,-24.266 13.743,-4.59 28.485,-5.324 42.649,-2.121 14.574,3.301 27.879,10.644 38.469,21.242 7.554,7.547 13.41,16.367 17.406,26.231 3.851,9.5 5.797,19.527 5.805,29.8 -0.008,10.285 -1.954,20.321 -5.805,29.797 -9.574,23.625 -30.93,41.844 -55.875,47.477 -14.152,3.203 -28.887,2.472 -42.266,-1.989 -17.773,-5.589 -35.621,-13.808 -53.039,-24.402 -9.394,-5.715 -18.359,-12.008 -26.898,-18.723 -58.301,62.313 -81.5667,136.622 -64.0784,206.915 15.9688,64.195 64.0004,114.875 125.3674,132.257 68.789,19.489 143.847,-3.89 212.496,-65.468 -6.609,-8.43 -12.793,-17.266 -18.434,-26.528 -10.609,-17.457 -18.824,-35.308 -24.269,-52.652 -4.582,-13.731 -5.317,-28.469 -2.121,-42.652 5.664,-24.946 23.769,-46.266 47.472,-55.875 9.504,-3.848 19.528,-5.801 29.801,-5.805 10.289,0.004 20.317,1.957 29.801,5.805 9.84,3.984 18.668,9.839 26.234,17.41 10.606,10.605 17.953,23.91 21.242,38.465 3.204,14.152 2.469,28.886 -1.988,42.265 -5.59,17.774 -13.808,35.621 -24.402,53.039 -5.613,9.215 -11.77,18.032 -18.418,26.508 68.918,61.695 143.82,84.945 212.484,65.488 z m -32.84,-341.132 c 13.942,-4.379 28.692,-11.192 42.664,-19.688 5.379,-3.277 10.547,-6.82 15.594,-10.5 -5.082,-3.703 -10.273,-7.273 -15.594,-10.512 -13.964,-8.5 -28.722,-15.316 -43.042,-19.82 -5.555,-1.855 -11.524,-2.148 -17.262,-0.848 -10.02,2.266 -18.676,9.657 -22.508,19.129 -1.551,3.824 -2.336,7.875 -2.336,12.043 -0.004,4.164 0.785,8.223 2.336,12.043 1.605,3.957 3.969,7.516 7.023,10.574 4.274,4.274 9.637,7.235 15.485,8.559 5.738,1.301 11.699,1 17.64,-0.98 z M 211.219,395.004 c -14.11,4.434 -28.465,11.055 -42.656,19.687 -5.387,3.278 -10.547,6.821 -15.594,10.497 5.082,3.707 10.273,7.277 15.594,10.511 13.96,8.504 28.714,15.321 43.039,19.821 5.554,1.855 11.523,2.148 17.257,0.847 10.032,-2.258 18.684,-9.648 22.512,-19.129 1.547,-3.828 2.332,-7.875 2.332,-12.043 0.012,-4.164 -0.785,-8.218 -2.332,-12.043 -1.605,-3.961 -3.965,-7.504 -7.023,-10.57 -4.278,-4.277 -9.637,-7.238 -15.489,-8.555 -5.734,-1.308 -11.699,-1.007 -17.64,0.977 z M 165.504,842 C 87.875,820.004 27.1953,756.277 7.14844,675.684 -14.3125,589.422 13.2148,499.148 82.4883,425.281 13.1055,351.332 -14.3242,260.988 7.14063,174.711 27.1992,94.1055 87.875,30.3828 165.496,8.39063 215.508,-5.77734 313.73,-13.6406 423.305,85.0313 532.664,-13.668 631.094,-5.78906 681.16,8.39063 758.789,30.3945 819.465,94.1133 839.516,174.711 c 21.461,86.258 -6.071,176.531 -75.34,250.398 69.383,73.954 96.808,164.293 75.344,250.575 -10.504,42.211 -32.137,79.793 -61.528,109.183 C 751.27,811.582 718.129,831.531 681.168,842 631.16,856.172 532.934,864.035 423.359,765.359 314.004,864.063 215.574,856.184 165.504,842" /><path
         id="path16"
         style="fill:#231f20;fill-opacity:1;fill-rule:nonzero;stroke:none"
         d="m 1192.46,256.234 c 0,-13.242 -10.38,-24.367 -23.88,-24.367 -12.99,0 -23.38,11.125 -23.38,24.367 v 338.407 c 0,13.242 10.39,24.355 23.38,24.355 13.5,0 23.88,-11.113 23.88,-24.355 V 256.234" /><path
         id="path18"
         style="fill:#231f20;fill-opacity:1;fill-rule:nonzero;stroke:none"
         d="m 1435.02,271.594 c -14.54,-29.656 -49.34,-42.371 -75.83,-42.371 -60.25,0 -93.48,40.254 -93.48,109.629 v 121.273 c 0,13.242 10.39,24.355 23.89,24.355 12.99,0 23.37,-11.113 23.37,-24.355 v -118.09 c 0,-41.32 20.25,-65.676 53.49,-65.676 34.29,0 68.56,19.59 68.56,72.024 v 111.742 c 0,13.242 10.39,24.355 23.89,24.355 12.99,0 23.38,-11.113 23.38,-24.355 V 256.234 c 0,-13.242 -10.39,-24.367 -23.38,-24.367 -13.5,0 -23.89,11.125 -23.89,24.367 v 15.36" /><path
         id="path20"
         style="fill:#231f20;fill-opacity:1;fill-rule:nonzero;stroke:none"
         d="m 1670.84,275.824 c 17.14,0 33.24,5.301 46.23,14.832 11.42,7.414 24.41,7.942 33.24,-2.117 8.83,-10.059 7.79,-27.012 -2.6,-34.426 -21.3,-15.879 -47.78,-24.89 -76.87,-24.89 -69.07,0 -128.29,51.375 -128.29,129.746 0.53,77.316 59.73,128.164 128.29,128.164 29.09,0 55.06,-9.528 76.87,-24.891 10.39,-7.418 11.43,-24.359 2.6,-34.422 -7.79,-8.472 -22.33,-10.066 -33.24,-2.121 -12.99,9.535 -29.09,14.836 -46.23,14.836 -43.62,0 -82.06,-33.375 -82.06,-83.148 1.04,-48.723 38.96,-81.563 82.06,-81.563" /><path
         id="path22"
         style="fill:#231f20;fill-opacity:1;fill-rule:nonzero;stroke:none"
         d="m 1904.57,374.328 97.13,-102.734 c 8.3,-10.067 8.3,-24.891 -1.04,-32.84 -9.87,-10.059 -24.41,-8.469 -33.24,0 l -105.95,116.512 v -99.032 c 0,-13.242 -10.39,-24.367 -23.89,-24.367 -12.99,0 -23.38,11.125 -23.38,24.367 v 338.407 c 0,13.242 10.39,24.355 23.38,24.355 13.5,0 23.89,-11.113 23.89,-24.355 V 395.52 l 79.46,82.085 c 8.83,8.997 23.38,8.997 32.21,0.524 9.34,-10.063 8.83,-24.887 0,-33.891 l -68.57,-69.91" /><path
         id="path24"
         style="fill:#231f20;fill-opacity:1;fill-rule:nonzero;stroke:none"
         d="m 2140.91,302.844 67.52,166.812 c 4.68,12.184 18.7,18.004 30.65,13.242 12.47,-4.769 17.65,-19.066 12.47,-31.25 L 2118.59,127.543 c -4.69,-12.18 -18.2,-18.008 -30.66,-13.234 -11.41,5.293 -16.1,19.062 -11.41,31.242 l 38.43,96.387 -85.18,210.242 c -4.16,12.183 1.55,27.539 14.02,31.246 12.98,3.707 24.92,-2.117 30.12,-15.36 l 67,-165.222" /><path
         id="path26"
         style="fill:#231f20;fill-opacity:1;fill-rule:nonzero;stroke:none"
         d="m 2414.12,275.824 c 17.14,0 33.25,5.301 46.24,14.832 11.42,7.414 24.4,7.942 33.23,-2.117 8.84,-10.059 7.8,-27.012 -2.59,-34.426 -21.3,-15.879 -47.79,-24.89 -76.88,-24.89 -69.07,0 -128.29,51.375 -128.29,129.746 0.53,77.316 59.74,128.164 128.29,128.164 29.09,0 55.06,-9.528 76.88,-24.891 10.39,-7.418 11.43,-24.359 2.59,-34.422 -7.79,-8.472 -22.33,-10.066 -33.23,-2.121 -12.99,9.535 -29.1,14.836 -46.24,14.836 -43.62,0 -82.06,-33.375 -82.06,-83.148 1.05,-48.723 38.96,-81.563 82.06,-81.563" /><path
         id="path28"
         style="fill:#231f20;fill-opacity:1;fill-rule:nonzero;stroke:none"
         d="m 2604.75,256.234 c 0,-13.242 -10.38,-24.367 -23.89,-24.367 -12.99,0 -23.38,11.125 -23.38,24.367 v 338.407 c 0,13.242 10.39,24.355 23.38,24.355 13.51,0 23.89,-11.113 23.89,-24.355 V 256.234" /><path
         id="path30"
         style="fill:#231f20;fill-opacity:1;fill-rule:nonzero;stroke:none"
         d="m 2872.76,358.969 c 0,49.785 -36.36,81.027 -79.98,81.027 -43.64,0 -79.99,-31.242 -79.99,-81.027 0,-50.305 36.35,-83.145 79.99,-83.145 43.62,0 79.98,32.84 79.98,83.145 z m -206.71,0 c 0,78.379 57.65,128.164 126.73,128.164 69.07,0 127.24,-49.785 127.24,-128.164 0,-78.371 -58.17,-129.746 -127.24,-129.746 -69.08,0 -126.73,51.375 -126.73,129.746" /><path
         id="path32"
         style="fill:#231f20;fill-opacity:1;fill-rule:nonzero;stroke:none"
         d="m 3148.04,271.594 c -14.53,-29.656 -49.34,-42.371 -75.82,-42.371 -60.25,0 -93.49,40.254 -93.49,109.629 v 121.273 c 0,13.242 10.38,24.355 23.89,24.355 12.99,0 23.37,-11.113 23.37,-24.355 v -118.09 c 0,-41.32 20.25,-65.676 53.5,-65.676 34.28,0 68.55,19.59 68.55,72.024 v 111.742 c 0,13.242 10.39,24.355 23.9,24.355 12.99,0 23.38,-11.113 23.38,-24.355 V 256.234 c 0,-13.242 -10.39,-24.367 -23.38,-24.367 -13.51,0 -23.9,11.125 -23.9,24.367 v 15.36" /><path
         id="path34"
         style="fill:#231f20;fill-opacity:1;fill-rule:nonzero;stroke:none"
         d="m 3382.83,439.996 c -43.64,0 -78.44,-31.769 -78.44,-81.027 0,-48.711 34.8,-82.61 78.44,-82.61 43.1,0 80.49,30.188 80.49,82.61 0,52.969 -41.55,81.027 -80.49,81.027 z m 81.01,154.645 c 0,13.242 10.39,24.355 23.9,24.355 12.99,0 23.38,-11.113 23.38,-24.355 V 256.234 c 0,-13.242 -10.39,-24.367 -23.38,-24.367 -13.51,0 -23.9,11.125 -23.9,24.367 v 16.414 c -16.09,-28.066 -50.9,-43.425 -84.66,-43.425 -66.48,0 -123.08,50.84 -123.08,129.226 0,78.899 55.56,128.684 122.57,128.684 35.32,0 69.08,-14.297 85.17,-42.363 v 149.871" /><path
         id="path36"
         style="fill:#231f20;fill-opacity:1;fill-rule:nonzero;stroke:none"
         d="m 3652.99,315.512 c 5.44,0 8.63,-4.699 8.63,-9.387 0,-4.492 -3.19,-9.375 -9.01,-9.375 h -12.37 v 18.762 z m -20.82,12.742 c -2.62,0 -4.87,-2.246 -4.87,-5.059 V 267.68 c 0,-3.567 2.81,-6.555 6.38,-6.555 3.75,0 6.56,2.988 6.56,6.555 v 18.758 h 4.31 l 15,-22.325 c 2.26,-2.988 6.01,-4.121 9.01,-1.875 3.19,2.071 3.75,6.008 1.5,9.2 l -10.12,14.433 c 10.12,2.629 14.43,11.633 14.43,20.625 0,10.891 -6.93,21.758 -21.38,21.758 z m 17.64,-87.391 c 30.19,0 54,24.383 54,54.578 0,30.196 -23.81,54.758 -54,54.758 -30.2,0 -54.02,-24.562 -54.02,-54.758 0,-30.195 23.82,-54.578 54.02,-54.578 z m 0,120.965 c 36.56,0 65.63,-29.824 65.63,-66.387 0,-36.57 -29.07,-66.199 -65.63,-66.199 -36.57,0 -65.46,29.629 -65.46,66.199 0,36.563 28.89,66.387 65.46,66.387" /></g></g></svg>